<?xml version="1.0"?>
<svg xmlns="http://www.w3.org/2000/svg" height="512px" viewBox="-96 0 480 480" width="512px"><g><path d="m196.296875 237.222656 29.925781-38.488281c5.628906-7.234375 6.644532-17.039063 2.621094-25.273437-4.027344-8.234376-12.390625-13.457032-21.554688-13.460938h-115.65625c-9.453124 0-18.019531 5.546875-21.890624 14.167969-3.871094 8.621093-2.324219 18.710937 3.953124 25.777343l25.128907 37.277344c-53.71875 27.242188-98.824219 96.601563-98.824219 154.777344 0 88 97.257812 88 144 88s144 0 144-88c0-58.785156-41.144531-127.046875-91.703125-154.777344zm-112-56.503906c1.273437-2.890625 4.144531-4.746094 7.304687-4.71875h115.6875c3.054688 0 5.84375 1.742188 7.183594 4.488281 1.34375 2.742188 1.003906 6.011719-.871094 8.421875l-33.511718 43.089844h-64.496094l-29.945312-42.6875c-2.121094-2.34375-2.636719-5.722656-1.320313-8.59375zm59.703125 283.28125c-76.800781 0-128-12.238281-128-72 0-54.574219 46.320312-122.734375 97.601562-144h68.71875c47.925782 22.160156 89.679688 88.945312 89.679688 144 0 59.761719-51.199219 72-128 72zm0 0" data-original="#000000" class="active-path" data-old_color="#000000" fill="#00AF80"/><path d="m144 336c15.488281 0 24 6.007812 24 8h16c0-12-13.296875-21.441406-32-23.542969v-16.457031h-16v16.457031c-18.703125 2.101563-32 11.542969-32 23.542969 0 13.679688 17.191406 24 40 24 15.488281 0 24 6.007812 24 8s-8.511719 8-24 8-24-6.007812-24-8h-16c0 12 13.296875 21.441406 32 23.542969v16.457031h16v-16.457031c18.703125-2.101563 32-11.542969 32-23.542969 0-13.679688-17.191406-24-40-24-15.488281 0-24-6.007812-24-8s8.511719-8 24-8zm0 0" data-original="#000000" class="active-path" data-old_color="#000000" fill="#00AF80"/><path d="m144 280c-44.183594 0-80 35.816406-80 80s35.816406 80 80 80 80-35.816406 80-80c-.046875-44.164062-35.835938-79.953125-80-80zm0 144c-35.347656 0-64-28.652344-64-64s28.652344-64 64-64 64 28.652344 64 64c-.039062 35.328125-28.671875 63.960938-64 64zm0 0" data-original="#000000" class="active-path" data-old_color="#000000" fill="#00AF80"/><path d="m144 148.296875-65.390625-76.296875h33.390625v-72h64v72h33.390625zm-30.609375-60.296875 30.609375 35.703125 30.609375-35.703125h-14.609375v-72h-32v72zm0 0" data-original="#000000" class="active-path" data-old_color="#000000" fill="#00AF80"/></g> </svg>
