<svg width="112" height="24" viewBox="0 0 112 24" fill="none" xmlns="http://www.w3.org/2000/svg">
<path d="M0 6.73701H5.13681L4.9684 11.7335H5.02453C5.78242 8.84227 6.6526 6.48438 10.7508 6.48438C13.9789 6.48438 16.0561 8.14052 16.421 10.8633H16.4491C17.1228 8.14052 18.9754 6.48438 22.1754 6.48438C25.8526 6.48438 27.9298 8.78613 27.9298 12.7159V23.523H22.7649V13.8949C22.7649 11.93 21.7543 10.751 19.9859 10.751C18.2175 10.751 16.5052 12.323 16.5052 15.4107V23.523H11.3684V13.8949C11.3684 11.93 10.3298 10.751 8.58946 10.751C6.84911 10.751 5.13681 12.351 5.13681 15.4949V23.523H0V6.73701Z" fill="white"/>
<path d="M30.0352 15.1581C30.0352 9.68438 33.6281 6.48438 39.158 6.48438C44.6878 6.48438 48.2807 9.68438 48.2807 15.1581C48.2807 20.6317 44.6878 23.7756 39.158 23.7756C33.6281 23.7756 30.0352 20.6037 30.0352 15.1581ZM43.1158 15.1581C43.1158 12.1826 41.6562 10.4142 39.158 10.4142C36.6597 10.4142 35.2 12.1826 35.2 15.1581C35.2 18.1335 36.6597 19.8458 39.158 19.8458C41.6562 19.8458 43.1158 18.1054 43.1158 15.1581V15.1581Z" fill="white"/>
<path d="M55.6632 20.0421H55.6071C55.6632 21.0245 55.7194 22.7087 55.7755 23.5228H50.6387V0H55.7755V7.01753C55.7755 7.8035 55.7194 10.1614 55.6913 10.9754H55.7475C56.3931 8.75787 58.5264 6.48419 61.5299 6.48419C66.3018 6.48419 69.1369 9.57192 69.1369 14.793C69.1369 20.4631 66.2738 23.7754 61.5018 23.7754C58.4422 23.7754 56.2527 22.1754 55.6632 20.0421ZM63.972 14.9614C63.972 12.0982 62.5404 10.414 60.1264 10.414C57.7124 10.414 55.7755 12.1263 55.7755 15.0175V15.8035C55.7755 18.3579 57.4317 19.8456 60.1545 19.8456C62.8773 19.8456 63.972 18.0491 63.972 14.9614V14.9614Z" fill="white"/>
<path d="M71.5508 6.73633H76.6876V23.5223H71.5508V6.73633Z" fill="white"/>
<path d="M79.4941 0H84.631V23.5228H79.4941V0Z" fill="white"/>
<path d="M87.3545 0H92.5194V23.5228H87.3545V0Z" fill="white"/>
<path d="M94.8491 17.8809H99.4807C99.4807 19.4247 100.267 20.4633 103.214 20.4633C106.161 20.4633 106.835 19.6773 106.835 18.4423C106.835 17.8528 106.526 17.3756 105.656 17.151C104.367 16.9151 103.063 16.7651 101.754 16.7019C99.3404 16.4774 97.4597 16.1124 96.4491 15.4107C95.9428 15.0214 95.5344 14.5192 95.2566 13.9441C94.9788 13.369 94.8393 12.737 94.8491 12.0984C94.8491 8.47735 98.5825 6.48438 103.242 6.48438C108.744 6.48438 111.242 8.58964 111.242 12.4914H106.695C106.667 10.723 105.853 9.79666 103.298 9.79666C100.744 9.79666 99.986 10.5826 99.986 11.7335C99.986 12.4352 100.267 12.9966 101.193 13.2212C102.568 13.4608 103.955 13.6294 105.347 13.7265C107.425 13.951 108.884 14.1475 110.119 14.8493C110.698 15.193 111.176 15.6823 111.506 16.2684C111.836 16.8546 112.006 17.517 112 18.1896C112 21.6984 108.968 23.7756 103.242 23.7756C97.5158 23.7756 94.8491 21.2773 94.8491 17.8809Z" fill="white"/>
</svg>
