<?xml version="1.0"?>
<svg xmlns="http://www.w3.org/2000/svg" id="Line_expand" height="512px" viewBox="0 0 512 512" width="512px" data-name="Line expand" class=""><g><g><path d="m488 440h-8v-222a18.021 18.021 0 0 0 -18-18h-6v16h6a2 2 0 0 1 2 2v222h-128a7.994 7.994 0 0 0 -3.578.845l-14.311 7.155h-124.222l-14.311-7.155a7.994 7.994 0 0 0 -3.578-.845h-128v-222a2 2 0 0 1 2-2h6v-16h-6a18.021 18.021 0 0 0 -18 18v222h-8a8 8 0 0 0 -8 8v20a28.032 28.032 0 0 0 28 28h372v-16h-372a12.013 12.013 0 0 1 -12-12v-12h142.111l14.311 7.155a7.994 7.994 0 0 0 3.578.845h128a7.994 7.994 0 0 0 3.578-.845l14.311-7.155h142.111v12a12.013 12.013 0 0 1 -12 12h-36v16h36a28.032 28.032 0 0 0 28-28v-20a8 8 0 0 0 -8-8z" data-original="#000000" class="active-path" data-old_color="#000000" fill="#00AF80"/><path d="m74.793 174.074 56 48a8 8 0 0 0 10.864-.417l2.343-2.343v148.686a8 8 0 0 0 4.751 7.311l72 32a8.011 8.011 0 0 0 3.249.689h64a8.011 8.011 0 0 0 3.249-.689l72-32a8 8 0 0 0 4.751-7.311v-148.686l2.343 2.343a8 8 0 0 0 10.864.417l56-48a8 8 0 0 0 1.543-10.369l-56-88a8 8 0 0 0 -3.6-3.058l-45.15-19.347a8 8 0 0 0 -.34-10.952l-24-24a8.029 8.029 0 0 0 -5.66-2.348h-96a8.02 8.02 0 0 0 -5.657 2.342l-24 24a8 8 0 0 0 -.343 10.958l-45.151 19.347a8 8 0 0 0 -3.6 3.058l-20.363 32 13.5 8.59 19.037-29.915 50.04-21.446 43.33 37.14a8 8 0 0 0 10.864-.417l10.343-10.344 10.343 10.344a8 8 0 0 0 10.864.417l43.33-37.14 50.04 21.446 50.949 80.061-45.108 38.659-2.065-2.065-23.493-39.151-13.72 8.232 15.25 25.416a7.972 7.972 0 0 0 -.39 2.468v162.8l-65.7 29.2h-22.3v-48h-16v48h-22.3l-65.7-29.2v-162.8a8 8 0 0 0 -.39-2.468l15.25-25.416-13.72-8.232-23.493 39.155-2.065 2.065-45.108-38.663 21.73-34.146-13.5-8.59-25.455 40a8 8 0 0 0 1.544 10.369zm164.789-88.974-43.816-37.552 11.782-11.782 37.552 43.816zm16.418-17.393-30.606-35.707h61.212zm16.418 17.4-5.518-5.525 37.556-43.816 11.782 11.782z" data-original="#000000" class="active-path" data-old_color="#000000" fill="#00AF80"/><path d="m248 112h16v16h-16z" data-original="#000000" class="active-path" data-old_color="#000000" fill="#00AF80"/><path d="m248 160h16v16h-16z" data-original="#000000" class="active-path" data-old_color="#000000" fill="#00AF80"/><path d="m248 208h16v16h-16z" data-original="#000000" class="active-path" data-old_color="#000000" fill="#00AF80"/><path d="m248 256h16v16h-16z" data-original="#000000" class="active-path" data-old_color="#000000" fill="#00AF80"/><path d="m248 304h16v16h-16z" data-original="#000000" class="active-path" data-old_color="#000000" fill="#00AF80"/><path d="m288 160h32v16h-32z" data-original="#000000" class="active-path" data-old_color="#000000" fill="#00AF80"/><path d="m405.657 341.657 32-32a8 8 0 0 0 0-11.314l-32-32-11.314 11.314 26.343 26.343-26.343 26.343z" data-original="#000000" class="active-path" data-old_color="#000000" fill="#00AF80"/><path d="m106.343 266.343-32 32a8 8 0 0 0 0 11.314l32 32 11.314-11.314-26.343-26.343 26.343-26.343z" data-original="#000000" class="active-path" data-old_color="#000000" fill="#00AF80"/></g></g> </svg>
